<svg width="145" height="36" fill="none" xmlns="http://www.w3.org/2000/svg"><g clip-path="url(#clip0_31_897)"><path d="M47.53 7.42c.862.207 1.562.416 2.071.615.488.192.836.423 1.044.687.2.26.301.621.301 1.073 0 .73-.24 1.218-.739 1.493-.53.293-1.349.44-2.432.44-.639 0-1.27-.053-1.877-.165a9.465 9.465 0 01-1.718-.474l-.27-.101v1.861l.123.051c.986.401 2.289.607 3.875.607 1.585 0 2.902-.322 3.742-.958.857-.65 1.295-1.575 1.295-2.754 0-.632-.126-1.207-.373-1.706-.252-.506-.686-.947-1.288-1.316-.592-.357-1.421-.668-2.465-.921-.85-.206-1.521-.409-1.991-.593-.445-.177-.765-.387-.944-.625-.176-.232-.262-.55-.262-.936 0-.705.248-1.182.76-1.464.543-.3 1.343-.448 2.376-.448.574 0 1.137.047 1.672.133a8.51 8.51 0 011.492.387l.266.098V.549l-.133-.047C51.703.38 51.219.267 50.573.16A12.86 12.86 0 0048.5 0c-1.617 0-2.848.329-3.652.983-.814.662-1.23 1.572-1.23 2.711 0 .972.305 1.76.904 2.342.584.568 1.596 1.034 3.01 1.384zm10.456 5.888h1.166l2.73-9.166 2.375 8.371c.133.466.563.795 1.044.795h1.191L69.5.198h-1.973l-2.272 9.865-2.49-8.86A1.377 1.377 0 0061.445.2h-.62v1.57l-2.501 8.317-2.049-9.036a1.08 1.08 0 00-1.058-.85H54.09l2.835 12.264c.114.5.549.846 1.058.846l.004-.004zM72.538.199h-.915v13.11h2.002V1.29c0-.603-.488-1.095-1.087-1.095V.2zM83.832 12.55c.857-.651 1.295-1.577 1.295-2.755 0-.632-.126-1.207-.373-1.706-.251-.506-.685-.947-1.288-1.316-.592-.357-1.42-.668-2.465-.921-.85-.206-1.521-.409-1.991-.593-.445-.177-.764-.387-.944-.625-.175-.232-.262-.55-.262-.936 0-.705.248-1.182.761-1.464.542-.3 1.342-.448 2.375-.448.574 0 1.138.047 1.672.133a8.51 8.51 0 011.493.387l.265.098V.549l-.133-.047C83.886.38 83.401.267 82.756.16A12.937 12.937 0 0080.678 0c-1.618 0-2.848.329-3.652.983-.814.662-1.23 1.572-1.23 2.711 0 .972.304 1.76.903 2.346.585.567 1.597 1.033 3.01 1.384.862.206 1.561.416 2.07.615.489.191.837.422 1.045.686.2.26.301.622.301 1.074 0 .73-.24 1.218-.739 1.493-.531.292-1.349.44-2.432.44-.64 0-1.27-.054-1.877-.166a9.388 9.388 0 01-1.718-.473l-.27-.101v1.861l.123.05c.986.402 2.288.608 3.874.608 1.586 0 2.903-.322 3.742-.958l.004-.004zm6.404-5.13c.861.207 1.56.416 2.07.615.488.192.836.423 1.044.687.201.26.302.621.302 1.073 0 .73-.24 1.218-.74 1.493-.53.293-1.348.44-2.432.44-.639 0-1.27-.053-1.876-.165a9.467 9.467 0 01-1.719-.474l-.269-.101v1.861l.122.051c.987.401 2.289.607 3.875.607 1.586 0 2.902-.322 3.742-.958.857-.65 1.295-1.575 1.295-2.754 0-.632-.126-1.207-.373-1.706-.251-.506-.685-.947-1.288-1.316-.592-.357-1.42-.668-2.465-.921-.85-.206-1.521-.409-1.991-.593-.445-.177-.764-.387-.944-.625-.175-.232-.262-.55-.262-.936 0-.705.248-1.182.761-1.464.542-.3 1.342-.448 2.375-.448.574 0 1.137.047 1.672.133a8.38 8.38 0 011.492.387l.266.098V.549L94.76.502C94.41.38 93.924.267 93.278.16A12.936 12.936 0 0091.201 0c-1.618 0-2.848.329-3.652.983-.815.662-1.23 1.572-1.23 2.711 0 .972.304 1.76.903 2.342.585.568 1.597 1.034 3.01 1.384h.004zM58.255 17.884l-5.88 12.152-5.881-12.152a1.3 1.3 0 00-1.166-.733H43.62v17.255c0 .723.581 1.309 1.299 1.309h1.019V20.84l5.665 11.646h1.575l5.636-11.646v13.565c0 .723.582 1.309 1.3 1.309h1.018V17.15h-1.708c-.495 0-.95.285-1.166.733h-.003zm16.17-.734H63.278v18.565h12.446v-.54c0-.722-.582-1.307-1.3-1.307h-8.8v-6.514h6.993v-1.843h-6.993v-6.485h10.1v-.567c0-.723-.582-1.308-1.3-1.308zm10.788 0h-7.211v18.565h7.211c2.727 0 4.697-.734 5.91-2.205 1.212-1.471 1.815-3.792 1.815-6.962 0-3.343-.62-5.747-1.859-7.207-1.241-1.46-3.196-2.19-5.866-2.19zm4.736 13.952c-.43 1.056-1.073 1.782-1.93 2.176-.858.394-1.938.59-3.233.59h-4.434V19.023h4.434c1.392 0 2.512.217 3.362.647.847.434 1.468 1.196 1.859 2.291.39 1.096.584 2.625.584 4.584 0 1.959-.215 3.498-.642 4.554v.003zm6.318-13.952H95.22v18.565h2.346V18.459c0-.723-.581-1.308-1.299-1.308zm12.392-.289c-2.059 0-3.738.409-5.037 1.226s-2.249 1.973-2.859 3.473c-.61 1.5-.915 3.257-.915 5.274 0 1.843.323 3.455.972 4.829a7.144 7.144 0 002.931 3.198c1.306.76 2.953 1.139 4.937 1.139a19.24 19.24 0 002.903-.202 16.688 16.688 0 002.418-.55v-2.103c-.764.289-1.59.498-2.476.632a17.53 17.53 0 01-2.619.203c-2.328 0-4.029-.618-5.109-1.858-1.076-1.24-1.618-3.004-1.618-5.288 0-1.652.208-3.076.628-4.265.42-1.193 1.116-2.104 2.088-2.74.972-.633 2.289-.95 3.95-.95a14.615 14.615 0 015.152.921v-2.075a15.415 15.415 0 00-2.447-.632 16.913 16.913 0 00-2.902-.232h.003zm15.317.289h-1.852l-7.01 18.565h2.432l1.945-5.104h8.011l1.945 5.104h2.404l-6.663-17.719a1.296 1.296 0 00-1.212-.845zm-4.083 11.589l3.577-9.543 3.605 9.543h-7.182zm23.808 5.128h-8.517V18.456c0-.722-.581-1.308-1.299-1.308h-1.048v18.564h12.159v-.539c0-.723-.581-1.308-1.298-1.308l.003.004z" fill="#5F555D"/><path d="M13.408 13.507H1.75c-.968 0-1.75-.791-1.75-1.764V0h11.653c.969 0 1.75.792 1.75 1.764v11.74l.005.003zm22.043-1.764V0H23.798a1.76 1.76 0 00-1.755 1.764v11.74h11.653c.97 0 1.751-.792 1.751-1.764l.004.003zM13.407 33.951V22.21H1.751C.782 22.21 0 23.002 0 23.975v11.74h11.653c.969 0 1.75-.792 1.75-1.764h.005zm22.044-9.976c0-.976-.786-1.764-1.751-1.764H22.047v11.74c0 .975.786 1.764 1.75 1.764h11.654v-11.74z" fill="#D50032"/></g><defs><clipPath id="clip0_31_897"><path fill="#fff" d="M0 0h145v36H0z"/></clipPath></defs></svg>